:version 1.10
:name ASF
:units
  mass 1
  length 1
  angle deg
:documentation
  ASF file generated by Kaydara
:root
  axis xyz
  order  tx ty tz rx ry rz
  position 0 0 0
  orientation 0 0 0
:bonedata
  begin
    id 1
    name RightUpLegDummy
    direction -0.65628 -0.754516 0.00165102
    length 4.76918
    axis 0 0 0 xyz
  end
  begin
    id 2
    name RightUpLeg
    direction -0.145584 -0.923362 0.355256
    length 17.9961
    axis -24.7611 -13.1006 1.78531 xyz
    dof rx ry rz
  end
  begin
    id 3
    name RightLeg
    direction 0.263379 0.172355 -0.949171
    length 13.3386
    axis 89.6202 -21.1929 12.3855 xyz
    dof rx ry rz
  end
  begin
    id 4
    name RightFoot
    direction 0.224283 -0.968777 -0.105675
    length 5.86697
    axis 56.995 -39.6905 17.3365 xyz
    dof rx ry rz
  end
  begin
    id 5
    name RightToes
    direction -0.0806345 -0.9037 0.420506
    length 4.75197
    axis 146.825 -39.7828 17.6019 xyz
    dof rx ry rz
  end
  begin
    id 6
    name SpineDummy
    direction -3.39852e-014 1 9.33296e-014
    length 8.13779
    axis 0 0 0 xyz
  end
  begin
    id 7
    name Spine
    direction -0.156609 0.733703 0.661176
    length 7.14978
    axis 41.2365 5.68757 17.0844 xyz
    dof rx ry rz
  end
  begin
    id 8
    name Spine1
    direction 0 0 0
    length 0
    axis 42.8809 47.8308 -3.36039 xyz
    dof rx ry rz
  end
  begin
    id 9
    name HEadDummy
    direction 0.546431 0.701947 0.456819
    length 3.55512
    axis 42.8809 47.8308 -3.36039 xyz
  end
  begin
    id 10
    name HEad
    direction 0.23444 0.828559 0.508457
    length 7.35827
    axis 51.1864 49.2662 27.4903 xyz
    dof rx ry rz
  end
  begin
    id 11
    name LeftShoulder1Dummy
    direction 0.431183 0.475873 -0.766568
    length 2.49352
    axis 42.8809 47.8308 -3.36039 xyz
  end
  begin
    id 12
    name LeftShoulder1
    direction 0.268187 -0.383402 -0.883786
    length 4.48604
    axis -119.517 0.106469 35.1736 xyz
    dof rx ry rz
  end
  begin
    id 13
    name LeftArm
    direction 0.380567 -0.703221 -0.600541
    length 10.1142
    axis -5.41825 36.2925 7.8293 xyz
    dof rx ry rz
  end
  begin
    id 14
    name LeftForeArm
    direction 0.541071 -0.732356 -0.413396
    length 9.39839
    axis 4.65387 33.7604 7.81644 xyz
    dof rx ry rz
  end
  begin
    id 15
    name LeftHand
    direction 0.847511 -0.389379 -0.360707
    length 3.66142
    axis 7.65593 21.1436 -24.6758 xyz
    dof rx ry rz
  end
  begin
    id 16
    name RightShoulderDummy
    direction -0.692546 0.541855 0.476208
    length 2.49352
    axis 42.8809 47.8308 -3.36039 xyz
  end
  begin
    id 17
    name RightShoulder
    direction -0.870808 -0.316653 0.376065
    length 4.48602
    axis 141.571 51.133 -100.254 xyz
    dof rx ry rz
  end
  begin
    id 18
    name RightArm
    direction 0.366897 -0.87275 0.322015
    length 10.1142
    axis 92.3258 71.2036 138.917 xyz
    dof rx ry rz
  end
  begin
    id 19
    name RightForeArm
    direction 0.702487 -0.694568 0.155197
    length 9.39835
    axis 153.863 41.5092 -176.604 xyz
    dof rx ry rz
  end
  begin
    id 20
    name RightHand
    direction 0.79502 -0.601276 0.0800636
    length 3.66142
    axis 154.247 4.59222 142.9 xyz
    dof rx ry rz
  end
  begin
    id 21
    name LeftUpLegDummy
    direction 0.65628 -0.754516 0.00165102
    length 4.76919
    axis 0 0 0 xyz
  end
  begin
    id 22
    name LeftUpLeg
    direction -0.1277 -0.689368 0.713067
    length 17.9961
    axis -48.3385 -17.8675 0.791927 xyz
    dof rx ry rz
  end
  begin
    id 23
    name LeftLeg
    direction 0.109849 -0.991246 -0.0732378
    length 13.3386
    axis -2.05791 -7.30784 1.72042 xyz
    dof rx ry rz
  end
  begin
    id 24
    name LeftFoot
    direction 0.0448355 -0.272614 0.961078
    length 5.86697
    axis -18.7733 -7.89606 10.2113 xyz
    dof rx ry rz
  end
  begin
    id 25
    name LeftToes
    direction -0.18506 0.293668 0.937823
    length 4.75197
    axis 71.2267 -7.89606 10.2113 xyz
    dof rx ry rz
  end
:hierarchy
  begin
    root RightUpLegDummy SpineDummy LeftUpLegDummy
    RightUpLegDummy RightUpLeg
    RightUpLeg RightLeg
    RightLeg RightFoot
    RightFoot RightToes
    SpineDummy Spine
    Spine Spine1
    Spine1 HEadDummy LeftShoulder1Dummy RightShoulderDummy
    HEadDummy HEad
    LeftShoulder1Dummy LeftShoulder1
    LeftShoulder1 LeftArm
    LeftArm LeftForeArm
    LeftForeArm LeftHand
    RightShoulderDummy RightShoulder
    RightShoulder RightArm
    RightArm RightForeArm
    RightForeArm RightHand
    LeftUpLegDummy LeftUpLeg
    LeftUpLeg LeftLeg
    LeftLeg LeftFoot
    LeftFoot LeftToes
  end

:SAMPLES-PER-SECOND 30
:FULLY-SPECIFIED
:DEGREES
635
root  5.72195 38.436 -64.4944 -4.77139 -15.7519 1.80472
RightUpLeg  26.8225 20.1357 25.1229
RightLeg  -90.1047 -12.3776 -12.299
RightFoot  18.1675 9.69516 -23.4036
RightToes  -1.27222e-014 -6.36111e-015 6.36111e-015
Spine  -31.4214 -21.9025 -12.5864
Spine1  4.44433 -16.4678 52.3195
HEad  -2.91535 9.0567 -11.9409
LeftShoulder1  6.36111e-015 -1.33558e-015 6.49777e-015
LeftArm  17.6152 -15.9837 -34.7496
LeftForeArm  -10.8256 -40.9371 6.49576
LeftHand  -1.2812 -1.18396 -11.6262
RightShoulder  -4.77083e-015 -6.36111e-015 -3.18055e-015
RightArm  55.9804 -40.5191 -13.1384
RightForeArm  -27.1506 16.5527 -28.7724
RightHand  -0.348081 3.31252 -2.23328
LeftUpLeg  15.0949 12.2232 8.06532
LeftLeg  6.14559 -2.79066 -0.119496
LeftFoot  5.80051 2.53907 -7.22992
LeftToes  9.54166e-015 4.2066e-011 -8.07781e-011
636
root  5.77486 38.4885 -63.7257 -5.14341 -19.9704 1.61047
RightUpLeg  29.0656 16.8824 23.3265
RightLeg  -90.8053 -14.4891 -18.6137
RightFoot  18.0507 9.84845 -23.6519
RightToes  -1.27222e-014 -6.36111e-015 6.36111e-015
Spine  -34.2596 -19.7964 -9.57352
Spine1  4.49965 -16.1257 47.7389
HEad  -0.0684939 9.2851 -12.8433
LeftShoulder1  6.36111e-015 -1.33558e-015 6.49777e-015
LeftArm  22.4137 -17.1564 -40.6203
LeftForeArm  -9.40798 -40.6204 5.80341
LeftHand  -1.41438 -1.57275 -12.0086
RightShoulder  -4.77083e-015 -6.36111e-015 -3.18055e-015
RightArm  52.2916 -39.4542 -6.26235
RightForeArm  -22.8434 17.3148 -26.8524
RightHand  -0.687499 4.55156 -1.13587
LeftUpLeg  18.2374 14.2458 10.6399
LeftLeg  -5.44919 -8.12946 -1.14687
LeftFoot  7.61578 4.78379 -12.9421
LeftToes  9.54166e-015 4.2066e-011 -8.07781e-011
637
root  5.82406 38.3814 -62.9076 -5.69939 -23.923 0.588894
RightUpLeg  31.6179 14.5666 22.2607
RightLeg  -90.13 -15.3339 -24.736
RightFoot  16.6742 9.63269 -23.2631
RightToes  -1.27222e-014 -6.36111e-015 6.36111e-015
Spine  -36.5705 -17.2363 -6.21236
Spine1  5.18429 -15.8729 43.9151
HEad  1.75348 10.2026 -14.7774
LeftShoulder1  6.36111e-015 -1.33558e-015 6.49777e-015
LeftArm  26.7072 -17.9142 -46.1143
LeftForeArm  -8.50119 -42.2873 6.11897
LeftHand  -1.43522 -1.63449 -12.0684
RightShoulder  -4.77083e-015 -6.36111e-015 -3.18055e-015
RightArm  50.2867 -38.2734 -2.61923
RightForeArm  -19.6887 21.2681 -27.9448
RightHand  -0.929212 5.31812 0.0789097
LeftUpLeg  23.0848 17.2554 14.8102
LeftLeg  -16.8583 -14.9953 0.158346
LeftFoot  7.90867 7.84409 -20.9224
LeftToes  9.54166e-015 4.2066e-011 -8.07781e-011
638
root  5.80133 38.2869 -62.1017 -6.38753 -26.7869 -0.968987
RightUpLeg  35.114 13.7605 22.7607
RightLeg  -90.7717 -15.4688 -27.6815
RightFoot  15.5257 9.15335 -22.4084
RightToes  -1.27222e-014 -6.36111e-015 6.36111e-015
Spine  -37.8222 -16.3796 -4.69917
Spine1  5.96766 -16.2538 43.1274
HEad  2.71018 12.3048 -17.6886
LeftShoulder1  6.36111e-015 -1.33558e-015 6.49777e-015
LeftArm  29.1391 -16.8806 -50.5228
LeftForeArm  -7.10714 -46.1987 7.14227
LeftHand  -1.48706 -1.83316 -12.0231
RightShoulder  -4.77083e-015 -6.36111e-015 -3.18055e-015
RightArm  50.2512 -36.6117 -2.17686
RightForeArm  -19.6624 25.6162 -31.4034
RightHand  -1.02682 5.37149 1.16978
LeftUpLeg  28.301 19.6576 18.5714
LeftLeg  -25.9403 -20.0809 2.79026
LeftFoot  10.826 8.91938 -22.0625
LeftToes  9.54166e-015 4.2066e-011 -8.07781e-011
639
root  5.64218 38.2744 -61.3463 -6.6994 -27.3786 -1.7248
RightUpLeg  38.2599 14.6053 24.0692
RightLeg  -93.0394 -15.3723 -26.6202
RightFoot  15.3516 8.40383 -21.1107
RightToes  -1.27222e-014 -6.36111e-015 6.36111e-015
Spine  -38.0672 -19.5929 -7.39478
Spine1  4.93485 -17.7402 47.8802
HEad  3.76765 15.7446 -20.8254
LeftShoulder1  6.36111e-015 -1.33558e-015 6.49777e-015
LeftArm  29.7723 -13.3075 -53.5666
LeftForeArm  -5.18023 -50.3409 7.96817
LeftHand  -1.59402 -2.25474 -11.8635
RightShoulder  -4.77083e-015 -6.36111e-015 -3.18055e-015
RightArm  51.7225 -34.6359 -3.93042
RightForeArm  -23.3217 27.3956 -35.8499
RightHand  -1.05005 5.18673 1.82283
LeftUpLeg  30.1118 16.8968 15.8523
LeftLeg  -28.8086 -17.8337 1.36829
LeftFoot  16.1552 6.56477 -14.4231
LeftToes  9.54166e-015 4.2066e-011 -8.07781e-011
640
root  5.34166 38.2216 -60.608 -5.9865 -26.0391 -1.12144
RightUpLeg  39.0469 17.1735 25.5959
RightLeg  -93.701 -14.1382 -23.1508
RightFoot  15.025 7.93613 -20.2794
RightToes  -1.27222e-014 -6.36111e-015 6.36111e-015
Spine  -37.1808 -25.3802 -13.2024
Spine1  1.39336 -19.2405 56.7999
HEad  5.76228 19.2182 -22.7717
LeftShoulder1  6.36111e-015 -1.33558e-015 6.49777e-015
LeftArm  30.5922 -9.09994 -56.068
LeftForeArm  -3.90919 -51.2384 7.65276
LeftHand  -1.73441 -2.75731 -11.8819
RightShoulder  -4.77083e-015 -6.36111e-015 -3.18055e-015
RightArm  53.9703 -33.9799 -7.83679
RightForeArm  -29.3565 26.6822 -40.2263
RightHand  -1.06381 5.10296 2.14964
LeftUpLeg  27.931 15.0822 10.8168
LeftLeg  -26.1751 -13.6496 0.552444
LeftFoot  18.5565 3.51037 -7.38586
LeftToes  9.54166e-015 4.2066e-011 -8.07781e-011
641
root  4.99638 38.169 -59.8652 -5.17553 -24.3242 0.0531621
RightUpLeg  38.8587 19.8567 26.6676
RightLeg  -92.7074 -12.3352 -19.7538
RightFoot  14.6986 7.95516 -20.2842
RightToes  -1.27222e-014 -6.36111e-015 6.36111e-015
Spine  -35.4532 -29.577 -18.0083
Spine1  -2.66743 -19.4452 64.2198
HEad  8.10867 20.382 -22.7788
LeftShoulder1  6.36111e-015 -1.33558e-015 6.49777e-015
LeftArm  32.8656 -6.93656 -58.4723
LeftForeArm  -3.58543 -48.4452 6.29453
LeftHand  -1.95555 -3.44018 -12.5565
RightShoulder  -4.77083e-015 -6.36111e-015 -3.18055e-015
RightArm  57.2052 -35.7554 -14.9153
RightForeArm  -37.3122 24.7408 -45.0259
RightHand  -1.13806 5.11806 3.01873
LeftUpLeg  25.5865 13.1469 6.71009
LeftLeg  -22.6455 -10.7978 -0.297299
LeftFoot  16.3732 3.13728 -6.92929
LeftToes  9.54166e-015 4.2066e-011 -8.07781e-011
642
root  4.70647 38.1558 -59.1132 -4.94694 -24.5535 0.795155
RightUpLeg  39.0803 21.4747 27.2012
RightLeg  -91.0915 -10.8498 -18.0053
RightFoot  14.6126 8.17962 -20.6678
RightToes  -1.27222e-014 -6.36111e-015 6.36111e-015
Spine  -35.0612 -29.8748 -19.3804
Spine1  -4.1528 -18.5946 65.4418
HEad  8.89402 18.5979 -21.8637
LeftShoulder1  6.36111e-015 -1.33558e-015 6.49777e-015
LeftArm  35.4332 -6.69607 -59.4811
LeftForeArm  -3.36238 -45.1145 4.89739
LeftHand  -2.24931 -4.36292 -13.6898
RightShoulder  -4.77083e-015 -6.36111e-015 -3.18055e-015
RightArm  61.7575 -38.5139 -24.698
RightForeArm  -47.9669 21.0737 -49.7656
RightHand  -1.35224 5.49404 5.01901
LeftUpLeg  25.3342 13.9448 6.70049
LeftLeg  -20.0276 -11.4546 -0.28369
LeftFoot  12.2966 3.65994 -8.84526
LeftToes  9.54166e-015 4.2066e-011 -8.07781e-011
